<svg xmlns="http://www.w3.org/2000/svg" viewBox="0 0 128 128">
  <!-- Elffuss: ángel eslava — halo, melena rubia, cara redonda angelical -->
  <ellipse cx="64" cy="16" rx="24" ry="6.5" fill="none" stroke="#ffd76a" stroke-width="5" opacity=".95"/>
  <!-- alitas -->
  <path d="M18 74 C 8 66 10 52 20 48 C 16 60 20 68 30 72 Z" fill="#ffffff" opacity=".8"/>
  <path d="M110 74 C 120 66 118 52 108 48 C 112 60 108 68 98 72 Z" fill="#ffffff" opacity=".8"/>
  <!-- melena (detrás) -->
  <path d="M64 24 C 32 24 22 52 24 84 C 25 98 34 108 44 110 L 44 68 C 44 48 52 38 64 38 C 76 38 84 48 84 68 L 84 110 C 94 108 103 98 104 84 C 106 52 96 24 64 24 Z" fill="#f7c948"/>
  <!-- cara redonda -->
  <circle cx="64" cy="72" r="29" fill="#ffe8d6"/>
  <!-- flequillo -->
  <path d="M35 72 C 35 46 47 34 64 34 C 81 34 93 46 93 72 C 93 61 87 56 80 53 C 73 50 70 45 64 45 C 58 45 55 50 48 53 C 41 56 35 61 35 72 Z" fill="#ffd76a"/>
  <!-- ojos azules -->
  <circle cx="52" cy="73" r="3.8" fill="#3b6fd4"/>
  <circle cx="76" cy="73" r="3.8" fill="#3b6fd4"/>
  <circle cx="53.2" cy="71.8" r="1.2" fill="#fff"/>
  <circle cx="77.2" cy="71.8" r="1.2" fill="#fff"/>
  <!-- mofletes -->
  <circle cx="44" cy="83" r="5" fill="#ffb3c0" opacity=".55"/>
  <circle cx="84" cy="83" r="5" fill="#ffb3c0" opacity=".55"/>
  <!-- sonrisa -->
  <path d="M56 87 Q 64 94 72 87" fill="none" stroke="#d4826a" stroke-width="3" stroke-linecap="round"/>
</svg>
